<?xml version="1.0" encoding="UTF-8" standalone="no"?>
<!DOCTYPE svg PUBLIC "-//W3C//DTD SVG 1.1//EN"
 "http://www.w3.org/Graphics/SVG/1.1/DTD/svg11.dtd">
<!-- Generated by graphviz version 2.40.1 (20161225.0304)
 -->
<!-- Title: ll Pages: 1 -->
<svg width="278pt" height="290pt"
 viewBox="0.00 0.00 278.00 290.00" xmlns="http://www.w3.org/2000/svg" xmlns:xlink="http://www.w3.org/1999/xlink">
<g id="graph0" class="graph" transform="scale(1 1) rotate(0) translate(4 286)">
<title>ll</title>
<polygon fill="#ffffff" stroke="transparent" points="-4,4 -4,-286 274,-286 274,4 -4,4"/>
<!-- 4 -->
<g id="node1" class="node">
<title>4</title>
<polygon fill="none" stroke="#000000" points="108,-212.5 108,-281.5 162,-281.5 162,-212.5 108,-212.5"/>
<text text-anchor="middle" x="135" y="-266.3" font-family="Times,serif" font-size="14.00" fill="#000000">4</text>
<polyline fill="none" stroke="#000000" points="108,-258.5 162,-258.5 "/>
<text text-anchor="middle" x="135" y="-243.3" font-family="Times,serif" font-size="14.00" fill="#000000">0</text>
<polyline fill="none" stroke="#000000" points="108,-235.5 162,-235.5 "/>
<text text-anchor="middle" x="121.5" y="-220.3" font-family="Times,serif" font-size="14.00" fill="#000000"> </text>
<polyline fill="none" stroke="#000000" points="135,-212.5 135,-235.5 "/>
<text text-anchor="middle" x="148.5" y="-220.3" font-family="Times,serif" font-size="14.00" fill="#000000"> </text>
</g>
<!-- 2 -->
<g id="node2" class="node">
<title>2</title>
<polygon fill="none" stroke="#000000" points="58,-106.5 58,-175.5 112,-175.5 112,-106.5 58,-106.5"/>
<text text-anchor="middle" x="85" y="-160.3" font-family="Times,serif" font-size="14.00" fill="#000000">2</text>
<polyline fill="none" stroke="#000000" points="58,-152.5 112,-152.5 "/>
<text text-anchor="middle" x="85" y="-137.3" font-family="Times,serif" font-size="14.00" fill="#000000">0</text>
<polyline fill="none" stroke="#000000" points="58,-129.5 112,-129.5 "/>
<text text-anchor="middle" x="71.5" y="-114.3" font-family="Times,serif" font-size="14.00" fill="#000000"> </text>
<polyline fill="none" stroke="#000000" points="85,-106.5 85,-129.5 "/>
<text text-anchor="middle" x="98.5" y="-114.3" font-family="Times,serif" font-size="14.00" fill="#000000"> </text>
</g>
<!-- 4&#45;&gt;2 -->
<g id="edge1" class="edge">
<title>4:c&#45;&gt;2</title>
<path fill="none" stroke="#000000" d="M115.9944,-212.4592C112.8289,-205.1611 108.5154,-195.2161 104.1128,-185.0657"/>
<polygon fill="#000000" stroke="#000000" points="107.2651,-183.5376 100.0749,-175.7561 100.8432,-186.3231 107.2651,-183.5376"/>
</g>
<!-- 6 -->
<g id="node3" class="node">
<title>6</title>
<polygon fill="none" stroke="#000000" points="158,-106.5 158,-175.5 212,-175.5 212,-106.5 158,-106.5"/>
<text text-anchor="middle" x="185" y="-160.3" font-family="Times,serif" font-size="14.00" fill="#000000">6</text>
<polyline fill="none" stroke="#000000" points="158,-152.5 212,-152.5 "/>
<text text-anchor="middle" x="185" y="-137.3" font-family="Times,serif" font-size="14.00" fill="#000000">0</text>
<polyline fill="none" stroke="#000000" points="158,-129.5 212,-129.5 "/>
<text text-anchor="middle" x="171.5" y="-114.3" font-family="Times,serif" font-size="14.00" fill="#000000"> </text>
<polyline fill="none" stroke="#000000" points="185,-106.5 185,-129.5 "/>
<text text-anchor="middle" x="198.5" y="-114.3" font-family="Times,serif" font-size="14.00" fill="#000000"> </text>
</g>
<!-- 4&#45;&gt;6 -->
<g id="edge2" class="edge">
<title>4:c&#45;&gt;6</title>
<path fill="none" stroke="#000000" d="M154.0056,-212.4592C157.1711,-205.1611 161.4846,-195.2161 165.8872,-185.0657"/>
<polygon fill="#000000" stroke="#000000" points="169.1568,-186.3231 169.9251,-175.7561 162.7349,-183.5376 169.1568,-186.3231"/>
</g>
<!-- 1 -->
<g id="node4" class="node">
<title>1</title>
<polygon fill="none" stroke="#000000" points="0,-.5 0,-69.5 54,-69.5 54,-.5 0,-.5"/>
<text text-anchor="middle" x="27" y="-54.3" font-family="Times,serif" font-size="14.00" fill="#000000">1</text>
<polyline fill="none" stroke="#000000" points="0,-46.5 54,-46.5 "/>
<text text-anchor="middle" x="27" y="-31.3" font-family="Times,serif" font-size="14.00" fill="#000000">0</text>
<polyline fill="none" stroke="#000000" points="0,-23.5 54,-23.5 "/>
<text text-anchor="middle" x="13.5" y="-8.3" font-family="Times,serif" font-size="14.00" fill="#000000"> </text>
<polyline fill="none" stroke="#000000" points="27,-.5 27,-23.5 "/>
<text text-anchor="middle" x="40.5" y="-8.3" font-family="Times,serif" font-size="14.00" fill="#000000"> </text>
</g>
<!-- 2&#45;&gt;1 -->
<g id="edge3" class="edge">
<title>2:c&#45;&gt;1</title>
<path fill="none" stroke="#000000" d="M64.882,-106.4592C60.9736,-99.0866 55.6333,-89.0129 50.1954,-78.7549"/>
<polygon fill="#000000" stroke="#000000" points="53.2011,-76.9521 45.4249,-69.7561 47.0164,-80.2307 53.2011,-76.9521"/>
</g>
<!-- 3 -->
<g id="node5" class="node">
<title>3</title>
<polygon fill="none" stroke="#000000" points="72,-.5 72,-69.5 126,-69.5 126,-.5 72,-.5"/>
<text text-anchor="middle" x="99" y="-54.3" font-family="Times,serif" font-size="14.00" fill="#000000">3</text>
<polyline fill="none" stroke="#000000" points="72,-46.5 126,-46.5 "/>
<text text-anchor="middle" x="99" y="-31.3" font-family="Times,serif" font-size="14.00" fill="#000000">0</text>
<polyline fill="none" stroke="#000000" points="72,-23.5 126,-23.5 "/>
<text text-anchor="middle" x="85.5" y="-8.3" font-family="Times,serif" font-size="14.00" fill="#000000"> </text>
<polyline fill="none" stroke="#000000" points="99,-.5 99,-23.5 "/>
<text text-anchor="middle" x="112.5" y="-8.3" font-family="Times,serif" font-size="14.00" fill="#000000"> </text>
</g>
<!-- 2&#45;&gt;3 -->
<g id="edge4" class="edge">
<title>2:c&#45;&gt;3</title>
<path fill="none" stroke="#000000" d="M99,-106.4592C99,-99.3845 99,-89.8225 99,-79.9972"/>
<polygon fill="#000000" stroke="#000000" points="102.5001,-79.7561 99,-69.7561 95.5001,-79.7561 102.5001,-79.7561"/>
</g>
<!-- 5 -->
<g id="node6" class="node">
<title>5</title>
<polygon fill="none" stroke="#000000" points="144,-.5 144,-69.5 198,-69.5 198,-.5 144,-.5"/>
<text text-anchor="middle" x="171" y="-54.3" font-family="Times,serif" font-size="14.00" fill="#000000">5</text>
<polyline fill="none" stroke="#000000" points="144,-46.5 198,-46.5 "/>
<text text-anchor="middle" x="171" y="-31.3" font-family="Times,serif" font-size="14.00" fill="#000000">0</text>
<polyline fill="none" stroke="#000000" points="144,-23.5 198,-23.5 "/>
<text text-anchor="middle" x="157.5" y="-8.3" font-family="Times,serif" font-size="14.00" fill="#000000"> </text>
<polyline fill="none" stroke="#000000" points="171,-.5 171,-23.5 "/>
<text text-anchor="middle" x="184.5" y="-8.3" font-family="Times,serif" font-size="14.00" fill="#000000"> </text>
</g>
<!-- 6&#45;&gt;5 -->
<g id="edge5" class="edge">
<title>6:c&#45;&gt;5</title>
<path fill="none" stroke="#000000" d="M171,-106.4592C171,-99.3845 171,-89.8225 171,-79.9972"/>
<polygon fill="#000000" stroke="#000000" points="174.5001,-79.7561 171,-69.7561 167.5001,-79.7561 174.5001,-79.7561"/>
</g>
<!-- 7 -->
<g id="node7" class="node">
<title>7</title>
<polygon fill="none" stroke="#000000" points="216,-.5 216,-69.5 270,-69.5 270,-.5 216,-.5"/>
<text text-anchor="middle" x="243" y="-54.3" font-family="Times,serif" font-size="14.00" fill="#000000">7</text>
<polyline fill="none" stroke="#000000" points="216,-46.5 270,-46.5 "/>
<text text-anchor="middle" x="243" y="-31.3" font-family="Times,serif" font-size="14.00" fill="#000000">0</text>
<polyline fill="none" stroke="#000000" points="216,-23.5 270,-23.5 "/>
<text text-anchor="middle" x="229.5" y="-8.3" font-family="Times,serif" font-size="14.00" fill="#000000"> </text>
<polyline fill="none" stroke="#000000" points="243,-.5 243,-23.5 "/>
<text text-anchor="middle" x="256.5" y="-8.3" font-family="Times,serif" font-size="14.00" fill="#000000"> </text>
</g>
<!-- 6&#45;&gt;7 -->
<g id="edge6" class="edge">
<title>6:c&#45;&gt;7</title>
<path fill="none" stroke="#000000" d="M205.118,-106.4592C209.0264,-99.0866 214.3667,-89.0129 219.8046,-78.7549"/>
<polygon fill="#000000" stroke="#000000" points="222.9836,-80.2307 224.5751,-69.7561 216.7989,-76.9521 222.9836,-80.2307"/>
</g>
</g>
</svg>
